<svg xmlns="http://www.w3.org/2000/svg" width="1200" height="675" viewBox="0 0 1200 675">
  <defs>
    <linearGradient id="bg" x1="0%" y1="0%" x2="0%" y2="100%">
      <stop offset="0%" style="stop-color:#1a3040;stop-opacity:1" />
      <stop offset="100%" style="stop-color:#2a4a5a;stop-opacity:1" />
    </linearGradient>
  </defs>
  <rect width="1200" height="675" fill="url(#bg)"/>
  <rect x="50" y="50" width="1100" height="575" rx="12" fill="none" stroke="#4a8a7a33" stroke-width="2"/>
  <!-- River waves -->
  <path d="M0 500 Q200 470 400 500 Q600 530 800 500 Q1000 470 1200 500 L1200 675 L0 675 Z" fill="#2a5a6a" opacity="0.3"/>
  <path d="M0 530 Q200 500 400 530 Q600 560 800 530 Q1000 500 1200 530 L1200 675 L0 675 Z" fill="#3a6a7a" opacity="0.2"/>
  <!-- Boat silhouette -->
  <path d="M560 480 L580 490 L640 490 L660 480 L620 475 Z" fill="#8a7a6a" opacity="0.4"/>
  <line x1="610" y1="475" x2="610" y2="440" stroke="#8a7a6a" stroke-width="2" opacity="0.4"/>
  <path d="M610 445 L610 470 L630 465 Z" fill="#7a6a5a" opacity="0.3"/>
  <!-- Moon -->
  <circle cx="300" cy="150" r="50" fill="#d4c4a4" opacity="0.12"/>
  <text x="600" y="340" text-anchor="middle" font-family="Georgia, serif" font-size="28" fill="#a4c4b4" opacity="0.7">Nỗi lòng người vợ nơi bến sông</text>
  <text x="600" y="380" text-anchor="middle" font-family="Georgia, serif" font-size="16" fill="#a4c4b4" opacity="0.4">Ca dao &amp; dị bản dân gian</text>
  <text x="600" y="420" text-anchor="middle" font-family="Georgia, serif" font-size="13" fill="#97202399">📸 Ảnh minh họa chưa có</text>
</svg>
